<svg data-name="Layer 1" xmlns="http://www.w3.org/2000/svg" width="704" height="745.194"><path d="M195.912 731.466c-28.108.003-71.759-22.235-111.857-59.45a174.925 174.925 0 01-12.683-13.161 2.443 2.443 0 01-.446-2.488 2.477 2.477 0 011.992-1.61l17.539-2.529a1.5 1.5 0 00.045-2.962L60.51 644a2.502 2.502 0 01-1.61-1.012c-31.605-44.117-48.846-98.97-53.377-114.73a2.494 2.494 0 012.908-3.134c4.846 1.009 14.926 3.254 27.98 6.946a2.512 2.512 0 011.748 1.794l.936 3.69a1.5 1.5 0 002.95-.266l.027-.386a2.507 2.507 0 013.221-2.23 431.834 431.834 0 0142.287 15.253 2.524 2.524 0 011.458 1.698l5.066 19.977a1.5 1.5 0 002.951-.266l.898-13.05a2.5 2.5 0 013.565-2.092c22.867 10.907 41.749 23.201 56.122 36.54 53.956 50.078 81.348 108.602 61.06 130.46-5.21 5.615-13.073 8.272-22.787 8.274z" fill="#f2f2f2"/><path d="M202.57 731.15c-27.957.004-63.663-48.563-82.52-114.281a174.944 174.944 0 01-4.054-17.822 2.444 2.444 0 01.904-2.36 2.475 2.475 0 012.537-.348l16.322 6.9a1.5 1.5 0 001.57-2.512l-22.954-20.012a2.501 2.501 0 01-.855-1.698c-4.251-54.104 9.343-109.97 13.61-125.805a2.494 2.494 0 014.11-1.18c3.632 3.374 11.106 10.512 20.362 20.41a2.514 2.514 0 01.57 2.439l-1.107 3.642a1.5 1.5 0 002.663 1.297l.222-.316a2.507 2.507 0 013.91-.243 431.786 431.786 0 0128.315 34.914 2.525 2.525 0 01.372 2.207l-5.99 19.721a1.5 1.5 0 002.663 1.297l7.515-10.707a2.443 2.443 0 012.09-1.067 2.488 2.488 0 012.043 1.12c13.937 21.156 23.746 41.44 29.154 60.289 20.304 70.758 13.502 135.016-15.163 143.242a22.73 22.73 0 01-6.289.872z" fill="#f2f2f2"/><ellipse cx="352" cy="727.194" rx="352" ry="18" fill="#e6e6e6"/><path d="M557.654 172.947h-4V63.402A63.402 63.402 0 00490.254 0H258.166a63.402 63.402 0 00-63.402 63.402v600.974a63.402 63.402 0 0063.402 63.402h232.087a63.402 63.402 0 0063.402-63.402V250.923h3.998z" fill="#3f3d56"/><path d="M540.16 63.844v600.09a47.35 47.35 0 01-47.35 47.35h-233.2a47.35 47.35 0 01-47.35-47.35V63.844a47.35 47.35 0 0147.35-47.35h28.29a22.507 22.507 0 0020.83 30.99h132.96a22.507 22.507 0 0020.83-30.99h30.29a47.35 47.35 0 0147.35 47.35z" fill="#fff"/><path d="M505.14 132.719H247.28a16.523 16.523 0 00-16.5 16.5v300a16.522 16.522 0 0016.5 16.5h257.86a16.483 16.483 0 0014.14-8.02 13.22 13.22 0 00.73-1.33 16.287 16.287 0 001.549-5.61 13.114 13.114 0 00.08-1.54v-300a16.516 16.516 0 00-16.5-16.5z" fill="#e6e6e6"/><circle cx="376.21" cy="590.219" r="57" fill="#f9a826"/><circle cx="378.267" cy="189.339" r="61.991" fill="#2f2e41"/><path d="M521.559 413.229v37.53a16.287 16.287 0 01-1.55 5.61 13.22 13.22 0 01-.73 1.33l-10.09-9.29-56.35-51.95-.01-.01-49.87-45.98 34.69-26.88 39.93 42.66z" fill="#ffb8b8"/><circle cx="624.655" cy="289.151" r="46.138" transform="rotate(-45 407.222 549.812)" fill="#ffb8b8"/><path d="M408.043 466.22H282.841l.2-.649c5.998-19.378 9.13-50.437 9.308-92.314.056-12.388-.153-25.702-.62-39.572-.825-25.314-2.352-48.127-3.488-62.808a18.26 18.26 0 0117.684-19.648 55.913 55.913 0 0125.498 5.466 159.877 159.877 0 0036.059 12.302 150.92 150.92 0 0163.724 29.866l1.403 1.13a141.917 141.917 0 0145.694 65.768l.084.25-22.797 30.097a2.51 2.51 0 01-2.722.882l-.305-.1-22.375-6.889c-16.68 33.708-3.118 53.307-.22 56.905.202.255.32.386.328.394l.303.327-.291.338a85.6 85.6 0 01-22.149 18.187z" fill="#f9a826"/><path d="M521.559 450.429v.33a16.287 16.287 0 01-1.55 5.61 13.22 13.22 0 01-.73 1.33 16.483 16.483 0 01-14.14 8.02H331.46l92.83-18.09s1.92-.18 5.29-.41c13.21-.94 48.83-2.83 79.61 1.19 4.24.56 8.39 1.22 12.37 2.02zM422.682 182.324a137.21 137.21 0 01-59.36 19.56l6.257-7.498c-4.63 1.44-9.355 2.896-14.203 2.82s-9.928-1.942-12.68-5.934c-2.64-3.83-2.69-9.044-.968-13.366s5.002-7.856 8.621-10.78a51.327 51.327 0 0147.772-8.537c5.426 1.832 10.662 4.703 14.268 9.152s5.346 10.66 3.5 16.082z" fill="#2f2e41"/><path d="M372.433 134.23a141.8 141.8 0 0151.59-33.362c12.47-4.62 26.044-7.474 39.082-4.85s25.368 11.642 29.005 24.435c2.974 10.46-.097 21.722-4.713 31.57S476.62 171 472.887 181.213a66.627 66.627 0 0067.042 89.347c-12.81 1.717-24.618 7.737-37.14 10.942s-27.3 2.987-36.605-5.984c-9.845-9.49-10.042-24.922-9.566-38.59l2.123-60.948c.36-10.36.669-21.053-3.068-30.724s-12.616-18.138-22.983-18.05c-7.857.067-14.811 4.826-21.112 9.52s-12.97 9.702-20.796 10.4-16.762-5.093-16.177-12.928z" fill="#2f2e41"/><path fill="#ffb8b8" d="M306.569 336.739l-4.82 40.75-10.45 88.23h-33.76l4.74-106.97 1.38-31.21 28.57 6.13 14.34 3.07z"/><path d="M341.416 396.9l-90.736-45.82a4.497 4.497 0 01-2.189-5.588l31.385-84.25c1.457-3.913 5.26-7.288 10.71-9.505 7.298-2.967 16.163-3.259 21.557-.71l.384.181-2.082 7.286z" fill="#f9a826"/></svg>